<svg t="1577021869644" class="icon" viewBox="0 0 1228 1024" version="1.1" xmlns="http://www.w3.org/2000/svg" p-id="1926" width="200" height="200"><path d="M665.228 590.094L471.845 344.345 244.985 728.33V178.613h697.793v254.451a250.091 250.091 0 0 1 62.173 19.3V148.713c0.007-0.218 0.007-0.478 0.007-0.737 0-17.387-14.095-31.482-31.482-31.482-0.27 0-0.539 0.004-0.809 0.009l-759.895-0.001a28.393 28.393 0 0 0-0.799-0.009c-17.387 0-31.482 14.095-31.482 31.482 0 0.26 0.004 0.518 0.007 0.777l-0.001 664.882c-0.007 0.218-0.007 0.478-0.007 0.737 0 17.387 14.095 31.482 31.482 31.482 0.271 0 0.539-0.004 0.809-0.009l497.597 0.001c-38.513-43.774-62.015-101.568-62.015-164.852v-0.329c0-31.94 5.979-62.473 16.832-90.569z" p-id="1927" fill="#d81e06"></path><path d="M937.84 607.02v0.221l-0.032 0.095-0.063 0.221v0.221l-0.064 0.158s-24.9 115.741-24.9 115.961c0 0 1.709-8.701 0 0-1.708 8.765-6.075 13.542-13.542 13.542s-11.39-5.537-13.701-14.492c-2.31-8.985-24.267-112.45-24.267-112.544l-0.032-0.095v-0.095l-0.063-0.221v-0.158l-0.032-0.127-0.032-0.158v-0.158l-0.063-0.064-0.032-0.221v-0.127l-0.063-0.158-0.032-0.221v-0.19l-0.095-0.19v-0.158l-0.032-0.158-0.032-0.127v-0.158l-0.032-0.064-0.063-0.221v-0.158l-0.032-0.158c-0.523-2.407-0.822-5.171-0.822-8.005 0-21.757 17.636-39.393 39.393-39.393h0.063c21.757 0 39.393 17.636 39.393 39.393 0 2.834-0.299 5.599-0.868 8.262z m-38.6 218.951h-0.032c-16.251 0-29.425-13.175-29.425-29.425 0-16.239 13.156-29.407 29.392-29.425h0.034c16.251 0 29.425 13.175 29.425 29.425 0 16.239-13.156 29.408-29.392 29.425z m0.632-349.213h-0.095c-112.624 0-203.931 91.273-203.984 203.885 0.054 112.621 91.359 203.895 203.984 203.895h0.19c112.624 0 203.931-91.273 203.984-203.885-0.054-112.621-91.359-203.895-203.984-203.895h-0.1z" p-id="1928" fill="#d81e06"></path></svg>